<svg width="24" height="24" viewBox="0 0 24 24" fill="none" xmlns="http://www.w3.org/2000/svg">
<g id="vuesax/outline/book">
<g id="book">
<path id="Vector" d="M11.9883 22.5463C11.6883 22.5463 11.3883 22.4763 11.1383 22.3363C9.26828 21.3163 5.97828 20.2363 3.91828 19.9663L3.62828 19.9263C2.31828 19.7663 1.23828 18.5363 1.23828 17.2063V5.12632C1.23828 4.33632 1.54828 3.61632 2.11828 3.09632C2.68828 2.57632 3.42828 2.32632 4.20828 2.39632C6.40828 2.56632 9.72828 3.66632 11.6083 4.84632L11.8483 4.98632C11.9183 5.02632 12.0683 5.02632 12.1283 4.99632L12.2883 4.89632C14.1683 3.71632 17.4883 2.59632 19.6983 2.40632C19.7183 2.40632 19.7983 2.40632 19.8183 2.40632C20.5483 2.33632 21.2983 2.59632 21.8583 3.11632C22.4283 3.63632 22.7383 4.35632 22.7383 5.14632V17.2163C22.7383 18.5563 21.6583 19.7763 20.3383 19.9363L20.0083 19.9763C17.9483 20.2463 14.6483 21.3363 12.8183 22.3463C12.5783 22.4863 12.2883 22.5463 11.9883 22.5463ZM3.96828 3.88632C3.64828 3.88632 3.35828 3.99632 3.12828 4.20632C2.87828 4.43632 2.73828 4.76632 2.73828 5.12632V17.2063C2.73828 17.7963 3.24828 18.3663 3.81828 18.4463L4.11828 18.4863C6.36828 18.7863 9.81828 19.9163 11.8183 21.0063C11.9083 21.0463 12.0383 21.0563 12.0883 21.0363C14.0883 19.9263 17.5583 18.7863 19.8183 18.4863L20.1583 18.4463C20.7283 18.3763 21.2383 17.7963 21.2383 17.2063V5.13632C21.2383 4.76632 21.0983 4.44632 20.8483 4.20632C20.5883 3.97632 20.2583 3.86632 19.8883 3.88632C19.8683 3.88632 19.7883 3.88632 19.7683 3.88632C17.8583 4.05632 14.7783 5.08632 13.0983 6.13632L12.9383 6.24632C12.3883 6.58632 11.6083 6.58632 11.0783 6.25632L10.8383 6.11632C9.12828 5.06632 6.04828 4.04632 4.08828 3.88632C4.04828 3.88632 4.00828 3.88632 3.96828 3.88632Z" fill="#2C91D4" stroke="#2C91D4" stroke-width="0.4"/>
<path id="Vector_2" d="M11.9883 21.707C11.5783 21.707 11.2383 21.367 11.2383 20.957V5.95703C11.2383 5.54703 11.5783 5.20703 11.9883 5.20703C12.3983 5.20703 12.7383 5.54703 12.7383 5.95703V20.957C12.7383 21.377 12.3983 21.707 11.9883 21.707Z" fill="#2C91D4" stroke="#2C91D4" stroke-width="0.4"/>
<path id="Vector_3" d="M7.73828 9.70703H5.48828C5.07828 9.70703 4.73828 9.36703 4.73828 8.95703C4.73828 8.54703 5.07828 8.20703 5.48828 8.20703H7.73828C8.14828 8.20703 8.48828 8.54703 8.48828 8.95703C8.48828 9.36703 8.14828 9.70703 7.73828 9.70703Z" fill="#2C91D4" stroke="#2C91D4" stroke-width="0.4"/>
<path id="Vector_4" d="M8.48828 12.707H5.48828C5.07828 12.707 4.73828 12.367 4.73828 11.957C4.73828 11.547 5.07828 11.207 5.48828 11.207H8.48828C8.89828 11.207 9.23828 11.547 9.23828 11.957C9.23828 12.367 8.89828 12.707 8.48828 12.707Z" fill="#2C91D4" stroke="#2C91D4" stroke-width="0.4"/>
</g>
</g>
</svg>
