<svg width="24" height="24" viewBox="0 0 24 24" fill="none" xmlns="http://www.w3.org/2000/svg">
<g id="vuesax/linear/book">
<g id="book">
<path id="Vector" d="M21.9883 17.1616V5.09158C21.9883 3.89158 21.0083 3.00158 19.8183 3.10158H19.7583C17.6583 3.28158 14.4683 4.35158 12.6883 5.47158L12.5183 5.58158C12.2283 5.76158 11.7483 5.76158 11.4583 5.58158L11.2083 5.43158C9.42828 4.32158 6.24828 3.26158 4.14828 3.09158C2.95828 2.99158 1.98828 3.89158 1.98828 5.08158V17.1616C1.98828 18.1216 2.76828 19.0216 3.72828 19.1416L4.01828 19.1816C6.18828 19.4716 9.53828 20.5716 11.4583 21.6216L11.4983 21.6416C11.7683 21.7916 12.1983 21.7916 12.4583 21.6416C14.3783 20.5816 17.7383 19.4716 19.9183 19.1816L20.2483 19.1416C21.2083 19.0216 21.9883 18.1216 21.9883 17.1616Z" stroke="#9292A0" stroke-width="1.5" stroke-linecap="round" stroke-linejoin="round"/>
<path id="Vector_2" d="M11.9883 5.91211V20.9121" stroke="#9292A0" stroke-width="1.5" stroke-linecap="round" stroke-linejoin="round"/>
<path id="Vector_3" d="M7.73828 8.91211H5.48828" stroke="#9292A0" stroke-width="1.5" stroke-linecap="round" stroke-linejoin="round"/>
<path id="Vector_4" d="M8.48828 11.9121H5.48828" stroke="#9292A0" stroke-width="1.5" stroke-linecap="round" stroke-linejoin="round"/>
</g>
</g>
</svg>
