<svg width="25" height="24" viewBox="0 0 25 24" fill="none" xmlns="http://www.w3.org/2000/svg">
<g id="vuesax/outline/calendar">
<g id="calendar">
<path id="Vector" d="M8.625 5.15C8.58882 5.15 8.55129 5.13526 8.52051 5.10449C8.48974 5.07371 8.475 5.03618 8.475 5V2C8.475 1.96382 8.48974 1.92629 8.52051 1.89551C8.55129 1.86474 8.58882 1.85 8.625 1.85C8.66118 1.85 8.69871 1.86474 8.72949 1.89551C8.76026 1.92629 8.775 1.96382 8.775 2V5C8.775 5.03618 8.76026 5.07371 8.72949 5.10449C8.69871 5.13526 8.66118 5.15 8.625 5.15Z" fill="#2C91D4" stroke="#2C91D4" stroke-width="1.2"/>
<path id="Vector_2" d="M16.625 5.15C16.5888 5.15 16.5513 5.13526 16.5205 5.10449C16.4897 5.07371 16.475 5.03618 16.475 5V2C16.475 1.96382 16.4897 1.92629 16.5205 1.89551C16.5513 1.86474 16.5888 1.85 16.625 1.85C16.6612 1.85 16.6987 1.86474 16.7295 1.89551C16.7603 1.92629 16.775 1.96382 16.775 2V5C16.775 5.03618 16.7603 5.07371 16.7295 5.10449C16.6987 5.13526 16.6612 5.15 16.625 5.15Z" fill="#2C91D4" stroke="#2C91D4" stroke-width="1.2"/>
<path id="Vector_3" d="M8.97577 13.866L8.96812 13.8628L8.96039 13.8598C8.92254 13.8453 8.88785 13.8255 8.83585 13.781C8.76184 13.6959 8.725 13.5969 8.725 13.4998C8.725 13.4608 8.73442 13.4092 8.75885 13.3506C8.7785 13.3034 8.80529 13.2581 8.84151 13.2139C8.8904 13.1727 8.92393 13.1538 8.96039 13.1398L8.96812 13.1368L8.97577 13.1337C9.11701 13.0748 9.30223 13.1109 9.40531 13.2088C9.48314 13.2942 9.525 13.4058 9.525 13.4998C9.525 13.4997 9.525 13.4997 9.52499 13.4999C9.52495 13.5011 9.52463 13.5099 9.52242 13.5298C9.52023 13.5496 9.51723 13.5714 9.51306 13.6008C9.51238 13.6027 9.51098 13.6062 9.50834 13.6115L9.48927 13.6496L9.47579 13.6901C9.47482 13.693 9.47025 13.7053 9.45577 13.727L9.44833 13.7382L9.4416 13.7462C9.43622 13.7525 9.43199 13.7574 9.42629 13.764C9.42247 13.7684 9.41799 13.7736 9.41207 13.7804C9.40877 13.7843 9.40515 13.7885 9.40128 13.793C9.31806 13.8626 9.21368 13.8998 9.125 13.8998C9.08598 13.8998 9.03435 13.8904 8.97577 13.866Z" fill="#2C91D4" stroke="#2C91D4" stroke-width="1.2"/>
<path id="Vector_4" d="M12.4758 13.866L12.4681 13.8629L12.4604 13.8599C12.4225 13.8453 12.3878 13.8256 12.3358 13.781C12.2618 13.696 12.225 13.5969 12.225 13.4999C12.225 13.4609 12.2344 13.4093 12.2588 13.3506C12.2785 13.3035 12.3053 13.2582 12.3415 13.2139C12.3904 13.1727 12.4239 13.1539 12.4604 13.1399L12.4747 13.1344L12.4887 13.1281C12.612 13.0734 12.794 13.1026 12.9052 13.2087C12.9831 13.2941 13.025 13.4058 13.025 13.4999C13.025 13.4997 13.025 13.4998 13.025 13.4999C13.0249 13.5012 13.0246 13.51 13.0224 13.5299C13.0202 13.5496 13.0172 13.5714 13.0131 13.6008C13.0124 13.6027 13.011 13.6063 13.0083 13.6115L12.9893 13.6497L12.9758 13.6901C12.9748 13.6931 12.9702 13.7053 12.9558 13.7271L12.9483 13.7382L12.9416 13.7463C12.9362 13.7526 12.932 13.7575 12.9263 13.764C12.9225 13.7684 12.918 13.7736 12.9121 13.7805C12.9088 13.7843 12.9051 13.7885 12.9013 13.793C12.8181 13.8626 12.7137 13.8999 12.625 13.8999C12.586 13.8999 12.5344 13.8905 12.4758 13.866Z" fill="#2C91D4" stroke="#2C91D4" stroke-width="1.2"/>
<path id="Vector_5" d="M16.125 14.4999C15.995 14.4999 15.865 14.4699 15.745 14.4199C15.615 14.3699 15.515 14.2999 15.415 14.2099C15.375 14.1599 15.335 14.1099 15.295 14.0599C15.255 13.9999 15.225 13.9399 15.205 13.8799C15.175 13.8199 15.155 13.7599 15.145 13.6999C15.135 13.6299 15.125 13.5599 15.125 13.4999C15.125 13.2399 15.235 12.9799 15.415 12.7899C15.515 12.6999 15.615 12.6299 15.745 12.5799C16.115 12.4199 16.555 12.5099 16.835 12.7899C17.015 12.9799 17.125 13.2399 17.125 13.4999C17.125 13.5599 17.115 13.6299 17.105 13.6999C17.095 13.7599 17.075 13.8199 17.045 13.8799C17.025 13.9399 16.995 13.9999 16.955 14.0599C16.925 14.1099 16.875 14.1599 16.835 14.2099C16.645 14.3899 16.385 14.4999 16.125 14.4999Z" fill="#2C91D4"/>
<path id="Vector_6" d="M8.75885 16.851L8.76203 16.8433L8.76501 16.8356C8.78773 16.7765 8.81402 16.7397 8.83926 16.7145C8.89453 16.6592 8.99551 16.6127 9.125 16.6127C9.2505 16.6127 9.34923 16.6564 9.4055 16.7094C9.48321 16.7947 9.525 16.9063 9.525 17.0002C9.525 17.0921 9.48495 17.2009 9.41037 17.2856C9.32576 17.3601 9.21694 17.4002 9.125 17.4002C9.08598 17.4002 9.03435 17.3908 8.97577 17.3664C8.92731 17.3462 8.88077 17.3184 8.83532 17.2806C8.76351 17.1967 8.725 17.0904 8.725 17.0002C8.725 16.9612 8.73442 16.9096 8.75885 16.851Z" fill="#2C91D4" stroke="#2C91D4" stroke-width="1.2"/>
<path id="Vector_7" d="M12.2588 16.851L12.262 16.8433L12.265 16.8356C12.2877 16.7765 12.314 16.7397 12.3393 16.7145C12.3945 16.6592 12.4955 16.6127 12.625 16.6127C12.7545 16.6127 12.8555 16.6592 12.9107 16.7145C12.936 16.7397 12.9623 16.7765 12.985 16.8356L12.988 16.8433L12.9912 16.851C13.0156 16.9096 13.025 16.9612 13.025 17.0002C13.025 17.0921 12.985 17.2009 12.9104 17.2856C12.8258 17.3601 12.7169 17.4002 12.625 17.4002C12.5331 17.4002 12.4242 17.3601 12.3396 17.2856C12.265 17.2009 12.225 17.0921 12.225 17.0002C12.225 16.9612 12.2344 16.9096 12.2588 16.851Z" fill="#2C91D4" stroke="#2C91D4" stroke-width="1.2"/>
<path id="Vector_8" d="M15.765 17.1645L15.762 17.1568L15.7588 17.1491C15.7344 17.0905 15.725 17.0389 15.725 16.9999C15.725 16.9609 15.7344 16.9093 15.7588 16.8507L15.762 16.843L15.765 16.8353C15.7877 16.7762 15.814 16.7394 15.8393 16.7142C15.9313 16.6222 16.0754 16.5817 16.1868 16.606L16.2083 16.6108L16.2301 16.6139C16.2306 16.6139 16.231 16.614 16.2313 16.6141C16.2323 16.6145 16.234 16.6152 16.2367 16.6166L16.2748 16.6356L16.3153 16.6491C16.318 16.65 16.3303 16.6546 16.3522 16.6692L16.3634 16.6766L16.3714 16.6833C16.3778 16.6887 16.3826 16.693 16.3892 16.6987C16.3936 16.7025 16.3988 16.707 16.4056 16.7129C16.4095 16.7162 16.4137 16.7198 16.4182 16.7236C16.4877 16.8069 16.525 16.9112 16.525 16.9999C16.525 17.0919 16.485 17.2007 16.4104 17.2853C16.3258 17.3599 16.2169 17.3999 16.125 17.3999C16.031 17.3999 15.9195 17.3581 15.8341 17.2803C15.8105 17.2553 15.7862 17.2196 15.765 17.1645Z" fill="#2C91D4" stroke="#2C91D4" stroke-width="1.2"/>
<path id="Vector_9" d="M21.125 9.23984H4.125C4.08882 9.23984 4.05129 9.2251 4.02051 9.19433C3.98974 9.16356 3.975 9.12602 3.975 9.08984C3.975 9.05367 3.98974 9.01613 4.02051 8.98536C4.05129 8.95459 4.08882 8.93984 4.125 8.93984H21.125C21.1612 8.93984 21.1987 8.95459 21.2295 8.98536C21.2603 9.01613 21.275 9.05367 21.275 9.08984C21.275 9.12602 21.2603 9.16356 21.2295 9.19433C21.1987 9.2251 21.1612 9.23984 21.125 9.23984Z" fill="#2C91D4" stroke="#2C91D4" stroke-width="1.2"/>
<path id="Vector_10" d="M16.625 22.15H8.625C6.91389 22.15 5.64585 21.6598 4.80551 20.8195C3.96518 19.9791 3.475 18.7111 3.475 17V8.5C3.475 6.78889 3.96518 5.52085 4.80551 4.68051C5.64585 3.84018 6.91389 3.35 8.625 3.35H16.625C18.3361 3.35 19.6041 3.84018 20.4445 4.68051C21.2848 5.52085 21.775 6.78889 21.775 8.5V17C21.775 18.7111 21.2848 19.9791 20.4445 20.8195C19.6041 21.6598 18.3361 22.15 16.625 22.15ZM8.625 3.65C7.10681 3.65 5.86257 4.0189 5.00324 4.87824C4.1439 5.73757 3.775 6.98181 3.775 8.5V17C3.775 18.5182 4.1439 19.7624 5.00324 20.6218C5.86257 21.4811 7.10681 21.85 8.625 21.85H16.625C18.1432 21.85 19.3874 21.4811 20.2468 20.6218C21.1061 19.7624 21.475 18.5182 21.475 17V8.5C21.475 6.98181 21.1061 5.73757 20.2468 4.87824C19.3874 4.0189 18.1432 3.65 16.625 3.65H8.625Z" fill="#2C91D4" stroke="#2C91D4" stroke-width="1.2"/>
</g>
</g>
</svg>
