<svg width="17" height="16" viewBox="0 0 17 16" fill="none" xmlns="http://www.w3.org/2000/svg">
<g id="vuesax/linear/camera">
<g id="camera">
<path id="Vector" d="M5.00808 14.6663H11.9947C13.8347 14.6663 14.5681 13.5397 14.6547 12.1663L15.0014 6.65967C15.0947 5.21967 13.9481 3.99967 12.5014 3.99967C12.0947 3.99967 11.7214 3.76634 11.5347 3.40634L11.0547 2.43967C10.7481 1.83301 9.94808 1.33301 9.26808 1.33301H7.74141C7.05475 1.33301 6.25475 1.83301 5.94808 2.43967L5.46808 3.40634C5.28141 3.76634 4.90808 3.99967 4.50141 3.99967C3.05475 3.99967 1.90808 5.21967 2.00141 6.65967L2.34808 12.1663C2.42808 13.5397 3.16808 14.6663 5.00808 14.6663Z" stroke="white" stroke-width="1.5" stroke-linecap="round" stroke-linejoin="round"/>
<path id="Vector_2" d="M7.5 5.33301H9.5" stroke="white" stroke-width="1.5" stroke-linecap="round" stroke-linejoin="round"/>
<path id="Vector_3" d="M8.4987 12.0003C9.69203 12.0003 10.6654 11.027 10.6654 9.83366C10.6654 8.64033 9.69203 7.66699 8.4987 7.66699C7.30536 7.66699 6.33203 8.64033 6.33203 9.83366C6.33203 11.027 7.30536 12.0003 8.4987 12.0003Z" stroke="white" stroke-width="1.5" stroke-linecap="round" stroke-linejoin="round"/>
</g>
</g>
</svg>
