<svg width="16" height="16" viewBox="0 0 16 16" fill="none" xmlns="http://www.w3.org/2000/svg">
<g id="vuesax/outline/clock">
<g id="clock">
<path id="Vector" d="M7.9987 15.1673C4.04536 15.1673 0.832031 11.954 0.832031 8.00065C0.832031 4.04732 4.04536 0.833984 7.9987 0.833984C11.952 0.833984 15.1654 4.04732 15.1654 8.00065C15.1654 11.954 11.952 15.1673 7.9987 15.1673ZM7.9987 1.83398C4.5987 1.83398 1.83203 4.60065 1.83203 8.00065C1.83203 11.4007 4.5987 14.1673 7.9987 14.1673C11.3987 14.1673 14.1654 11.4007 14.1654 8.00065C14.1654 4.60065 11.3987 1.83398 7.9987 1.83398Z" fill="white"/>
<path id="Vector_2" d="M10.4751 10.6192C10.3884 10.6192 10.3017 10.5992 10.2217 10.5459L8.15505 9.31253C7.64172 9.00586 7.26172 8.33253 7.26172 7.73919V5.00586C7.26172 4.73253 7.48839 4.50586 7.76172 4.50586C8.03505 4.50586 8.26172 4.73253 8.26172 5.00586V7.73919C8.26172 7.97919 8.46172 8.33253 8.66839 8.45253L10.7351 9.68586C10.9751 9.82586 11.0484 10.1325 10.9084 10.3725C10.8084 10.5325 10.6417 10.6192 10.4751 10.6192Z" fill="white"/>
</g>
</g>
</svg>
