<svg width="118" height="118" viewBox="0 0 118 118" fill="none" xmlns="http://www.w3.org/2000/svg">
<g id="vuesax/bold/document-text">
<g id="document-text">
<path id="Vector" d="M85.7225 40.8576L85.7096 40.8574H85.6966C79.5649 40.8574 74.6341 35.9446 74.6341 30.1883V13.0291C74.6341 12.8591 74.6811 12.7532 74.7386 12.6743C74.8053 12.5829 74.9174 12.4895 75.0732 12.4282C75.3845 12.3057 75.6989 12.3588 75.9441 12.6041C80.8529 17.5128 88.2219 24.949 94.6734 31.4593C97.7809 34.5951 100.675 37.516 102.98 39.8364L102.98 39.8364L102.986 39.8424C103.113 39.9694 103.148 40.0731 103.16 40.1475C103.174 40.2363 103.164 40.3521 103.109 40.4772C103.001 40.7219 102.772 40.9066 102.413 40.9066C96.8527 40.9066 90.3775 40.9066 85.7225 40.8576Z" fill="url(#paint0_linear_5162_30822)" stroke="url(#paint1_linear_5162_30822)" stroke-width="4.91667"/>
<path id="Vector_2" d="M86.5838 52.5591H100.793C102.139 52.5591 103.251 53.6709 103.251 55.0174V80.7808C103.251 88.9539 100.419 95.1256 96.0125 99.2639C91.5819 103.425 85.3688 105.708 78.3238 105.708H39.6788C32.6338 105.708 26.4207 103.425 21.9901 99.2639C17.5839 95.1256 14.7513 88.9539 14.7513 80.7808V37.2191C14.7513 29.0459 17.5839 22.8743 21.9901 18.7359C26.4207 14.5747 32.6338 12.2916 39.6788 12.2916H60.5255C61.8719 12.2916 62.9838 13.4035 62.9838 14.7499V28.9591C62.9838 41.9693 73.5736 52.5591 86.5838 52.5591ZM36.8763 89.7291H56.543C59.9165 89.7291 62.6888 86.9568 62.6888 83.5833C62.6888 80.2097 59.9165 77.4374 56.543 77.4374H36.8763C33.5028 77.4374 30.7305 80.2097 30.7305 83.5833C30.7305 86.9568 33.5028 89.7291 36.8763 89.7291ZM36.8763 70.0624H66.3763C69.7498 70.0624 72.5221 67.2901 72.5221 63.9166C72.5221 60.543 69.7498 57.7708 66.3763 57.7708H36.8763C33.5028 57.7708 30.7305 60.543 30.7305 63.9166C30.7305 67.2901 33.5028 70.0624 36.8763 70.0624Z" fill="url(#paint2_linear_5162_30822)" stroke="url(#paint3_linear_5162_30822)" stroke-width="4.91667"/>
</g>
</g>
<defs>
<linearGradient id="paint0_linear_5162_30822" x1="137.333" y1="65.8482" x2="35.9625" y2="-17.4769" gradientUnits="userSpaceOnUse">
<stop offset="0.273861" stop-color="#18C9BF"/>
<stop offset="0.443698" stop-color="#63C0FD"/>
<stop offset="1" stop-color="#404180"/>
</linearGradient>
<linearGradient id="paint1_linear_5162_30822" x1="137.333" y1="65.8482" x2="35.9625" y2="-17.4769" gradientUnits="userSpaceOnUse">
<stop offset="0.273861" stop-color="#18C9BF"/>
<stop offset="0.443698" stop-color="#63C0FD"/>
<stop offset="1" stop-color="#404180"/>
</linearGradient>
<linearGradient id="paint2_linear_5162_30822" x1="194.269" y1="174.247" x2="-100.373" y2="-55.8943" gradientUnits="userSpaceOnUse">
<stop offset="0.273861" stop-color="#18C9BF"/>
<stop offset="0.443698" stop-color="#63C0FD"/>
<stop offset="1" stop-color="#404180"/>
</linearGradient>
<linearGradient id="paint3_linear_5162_30822" x1="194.269" y1="174.247" x2="-100.373" y2="-55.8943" gradientUnits="userSpaceOnUse">
<stop offset="0.273861" stop-color="#18C9BF"/>
<stop offset="0.443698" stop-color="#63C0FD"/>
<stop offset="1" stop-color="#404180"/>
</linearGradient>
</defs>
</svg>
