<svg width="20" height="20" viewBox="0 0 20 20" fill="none" xmlns="http://www.w3.org/2000/svg">
<g id="vuesax/outline/document-text">
<g id="document-text">
<path id="Vector" d="M12.5013 18.9584H7.5013C2.9763 18.9584 1.04297 17.0251 1.04297 12.5001V7.50008C1.04297 2.97508 2.9763 1.04175 7.5013 1.04175H11.668C12.0096 1.04175 12.293 1.32508 12.293 1.66675C12.293 2.00841 12.0096 2.29175 11.668 2.29175H7.5013C3.65964 2.29175 2.29297 3.65841 2.29297 7.50008V12.5001C2.29297 16.3417 3.65964 17.7084 7.5013 17.7084H12.5013C16.343 17.7084 17.7096 16.3417 17.7096 12.5001V8.33342C17.7096 7.99175 17.993 7.70842 18.3346 7.70842C18.6763 7.70842 18.9596 7.99175 18.9596 8.33342V12.5001C18.9596 17.0251 17.0263 18.9584 12.5013 18.9584Z" fill="#414042"/>
<path id="Vector_2" d="M18.3346 8.95841H15.0013C12.1513 8.95841 11.043 7.85007 11.043 5.00007V1.66674C11.043 1.41674 11.193 1.18341 11.4263 1.09174C11.6596 0.991739 11.9263 1.05007 12.1096 1.22507L18.7763 7.89174C18.9513 8.06674 19.0096 8.34174 18.9096 8.57507C18.8096 8.8084 18.5846 8.95841 18.3346 8.95841ZM12.293 3.17507V5.00007C12.293 7.15007 12.8513 7.70841 15.0013 7.70841H16.8263L12.293 3.17507Z" fill="#414042"/>
<path id="Vector_3" d="M10.832 11.4583H5.83203C5.49036 11.4583 5.20703 11.1749 5.20703 10.8333C5.20703 10.4916 5.49036 10.2083 5.83203 10.2083H10.832C11.1737 10.2083 11.457 10.4916 11.457 10.8333C11.457 11.1749 11.1737 11.4583 10.832 11.4583Z" fill="#292D32"/>
<path id="Vector_4" d="M9.16536 14.7917H5.83203C5.49036 14.7917 5.20703 14.5084 5.20703 14.1667C5.20703 13.8251 5.49036 13.5417 5.83203 13.5417H9.16536C9.50703 13.5417 9.79036 13.8251 9.79036 14.1667C9.79036 14.5084 9.50703 14.7917 9.16536 14.7917Z" fill="#292D32"/>
</g>
</g>
</svg>
