<svg width="25" height="24" viewBox="0 0 25 24" fill="none" xmlns="http://www.w3.org/2000/svg">
<g id="vuesax/outline/home-2">
<g id="home-2">
<path id="Vector" d="M18.4384 22.75H6.85844C4.11844 22.75 1.89844 20.52 1.89844 17.78V10.37C1.89844 9.00997 2.73844 7.29997 3.81844 6.45997L9.20844 2.25997C10.8284 0.999974 13.4184 0.939974 15.0984 2.11997L21.2784 6.44997C22.4684 7.27997 23.3984 9.05997 23.3984 10.51V17.79C23.3984 20.52 21.1784 22.75 18.4384 22.75ZM10.1284 3.43997L4.73844 7.63997C4.02844 8.19997 3.39844 9.46997 3.39844 10.37V17.78C3.39844 19.69 4.94844 21.25 6.85844 21.25H18.4384C20.3484 21.25 21.8984 19.7 21.8984 17.79V10.51C21.8984 9.54997 21.2084 8.21997 20.4184 7.67997L14.2384 3.34997C13.0984 2.54997 11.2184 2.58997 10.1284 3.43997Z" fill="#2C91D4" stroke="#2C91D4" stroke-width="1.2"/>
<path id="Vector_2" d="M12.6484 18.75C12.2384 18.75 11.8984 18.41 11.8984 18V15C11.8984 14.59 12.2384 14.25 12.6484 14.25C13.0584 14.25 13.3984 14.59 13.3984 15V18C13.3984 18.41 13.0584 18.75 12.6484 18.75Z" fill="#2C91D4" stroke="#2C91D4" stroke-width="1.2"/>
</g>
</g>
</svg>
