<svg width="33" height="32" viewBox="0 0 33 32" fill="none" xmlns="http://www.w3.org/2000/svg">
<g id="icons/jpg" clip-path="url(#clip0_5076_3983)">
<path id="Vector" d="M23.6209 8.00031H28.8853C28.9521 8.00043 29.0175 7.98094 29.0731 7.94432C29.1287 7.9077 29.172 7.8556 29.1976 7.79462C29.2232 7.73364 29.2299 7.66652 29.2168 7.60178C29.2038 7.53704 29.1715 7.4776 29.1242 7.43098L22.1725 0.569642C22.1256 0.523215 22.0659 0.491472 22.0009 0.478386C21.9359 0.4653 21.8684 0.471452 21.8068 0.496073C21.7453 0.520693 21.6925 0.562688 21.655 0.616803C21.6175 0.670918 21.5971 0.734749 21.5961 0.800309V6.00031C21.5961 6.53074 21.8094 7.03945 22.1892 7.41452C22.5689 7.7896 23.0839 8.00031 23.6209 8.00031ZM16.1967 17.5003H15.3531C15.2636 17.5003 15.1778 17.5354 15.1145 17.5979C15.0512 17.6605 15.0156 17.7452 15.0156 17.8336V19.5003C15.0156 19.5887 15.0512 19.6735 15.1145 19.736C15.1778 19.7985 15.2636 19.8336 15.3531 19.8336H16.1967C16.51 19.8336 16.8104 19.7107 17.0319 19.4919C17.2534 19.2731 17.3779 18.9764 17.3779 18.667C17.3779 18.3576 17.2534 18.0608 17.0319 17.842C16.8104 17.6232 16.51 17.5003 16.1967 17.5003Z" fill="url(#paint0_linear_5076_3983)"/>
<path id="Vector_2" d="M29.3587 9.33333H23.6218C22.7268 9.33333 21.8685 8.98214 21.2356 8.35702C20.6027 7.7319 20.2472 6.88406 20.2472 6V0.333333C20.2472 0.244928 20.2117 0.160143 20.1484 0.0976311C20.0851 0.035119 19.9992 0 19.9097 0L5.39891 0C4.68291 0 3.99623 0.280952 3.48994 0.781049C2.98365 1.28115 2.69922 1.95942 2.69922 2.66667V29.3333C2.69922 30.0406 2.98365 30.7189 3.48994 31.219C3.99623 31.719 4.68291 32 5.39891 32H26.9964C27.7124 32 28.3991 31.719 28.9054 31.219C29.4117 30.7189 29.6961 30.0406 29.6961 29.3333V9.66667C29.6961 9.57826 29.6606 9.49348 29.5973 9.43096C29.534 9.36845 29.4482 9.33333 29.3587 9.33333ZM12.3169 22.6667C12.3169 23.4181 12.0147 24.1388 11.4767 24.6701C10.9388 25.2015 10.2092 25.5 9.44845 25.5C8.68769 25.5 7.9581 25.2015 7.42017 24.6701C6.88223 24.1388 6.58002 23.4181 6.58002 22.6667C6.58002 22.4457 6.66891 22.2337 6.82712 22.0774C6.98534 21.9211 7.19993 21.8333 7.42368 21.8333C7.64743 21.8333 7.86201 21.9211 8.02023 22.0774C8.17845 22.2337 8.26733 22.4457 8.26733 22.6667C8.26733 22.9761 8.39177 23.2728 8.61327 23.4916C8.83477 23.7104 9.13519 23.8333 9.44845 23.8333C9.7617 23.8333 10.0621 23.7104 10.2836 23.4916C10.5051 23.2728 10.6296 22.9761 10.6296 22.6667V16.6667C10.6296 16.4457 10.7184 16.2337 10.8767 16.0774C11.0349 15.9211 11.2495 15.8333 11.4732 15.8333C11.697 15.8333 11.9116 15.9211 12.0698 16.0774C12.228 16.2337 12.3169 16.4457 12.3169 16.6667V22.6667ZM16.0289 21.5H15.354C15.2645 21.5 15.1787 21.5351 15.1154 21.5976C15.0521 21.6601 15.0166 21.7449 15.0166 21.8333V24.6667C15.0166 24.8877 14.9277 25.0996 14.7695 25.2559C14.6112 25.4122 14.3967 25.5 14.1729 25.5C13.9492 25.5 13.7346 25.4122 13.5764 25.2559C13.4181 25.0996 13.3293 24.8877 13.3293 24.6667V16.6667C13.3293 16.4457 13.4181 16.2337 13.5764 16.0774C13.7346 15.9211 13.9492 15.8333 14.1729 15.8333H16.1977C16.5995 15.8338 16.9968 15.9176 17.3638 16.0793C17.7308 16.2409 18.0594 16.4768 18.3283 16.7717C18.5973 17.0667 18.8006 17.4141 18.9251 17.7915C19.0496 18.1688 19.0926 18.5678 19.0512 18.9627C18.949 19.6776 18.5849 20.3307 18.028 20.7983C17.471 21.2659 16.7598 21.5156 16.0289 21.5ZM25.8153 19.3333C25.8153 19.5543 25.7264 19.7663 25.5682 19.9226C25.41 20.0789 25.1954 20.1667 24.9717 20.1667C24.7479 20.1667 24.5333 20.0789 24.3751 19.9226C24.2169 19.7663 24.128 19.5543 24.128 19.3333V18.6667C24.128 18.3572 24.0036 18.0605 23.7821 17.8417C23.5606 17.6229 23.2601 17.5 22.9469 17.5C22.6336 17.5 22.3332 17.6229 22.1117 17.8417C21.8902 18.0605 21.7658 18.3572 21.7658 18.6667V22.6667C21.7657 22.9252 21.8526 23.1764 22.0127 23.3809C22.1729 23.5854 22.3972 23.7315 22.6506 23.7964C22.904 23.8612 23.172 23.8411 23.4125 23.7392C23.653 23.6373 23.8525 23.4594 23.9795 23.2333C24.0484 23.1107 24.1537 22.8333 23.8675 22.8333H23.6218C23.3981 22.8333 23.1835 22.7455 23.0253 22.5893C22.8671 22.433 22.7782 22.221 22.7782 22C22.7782 21.779 22.8671 21.567 23.0253 21.4107C23.1835 21.2545 23.3981 21.1667 23.6218 21.1667H24.9717C25.1954 21.1667 25.41 21.2545 25.5682 21.4107C25.7264 21.567 25.8153 21.779 25.8153 22V22.6667C25.8153 23.4181 25.5131 24.1388 24.9752 24.6701C24.4372 25.2015 23.7077 25.5 22.9469 25.5C22.1861 25.5 21.4566 25.2015 20.9186 24.6701C20.3807 24.1388 20.0785 23.4181 20.0785 22.6667V18.6667C20.0785 17.9152 20.3807 17.1946 20.9186 16.6632C21.4566 16.1318 22.1861 15.8333 22.9469 15.8333C23.7077 15.8333 24.4372 16.1318 24.9752 16.6632C25.5131 17.1946 25.8153 17.9152 25.8153 18.6667V19.3333Z" fill="url(#paint1_linear_5076_3983)"/>
</g>
<defs>
<linearGradient id="paint0_linear_5076_3983" x1="57.7146" y1="49.2529" x2="-14.505" y2="2.78827" gradientUnits="userSpaceOnUse">
<stop stop-color="#6667AB"/>
<stop offset="0.873544" stop-color="#63C0FD"/>
</linearGradient>
<linearGradient id="paint1_linear_5076_3983" x1="83.8339" y1="80.6219" x2="-41.5783" y2="-12.1457" gradientUnits="userSpaceOnUse">
<stop stop-color="#6667AB"/>
<stop offset="0.873544" stop-color="#63C0FD"/>
</linearGradient>
<clipPath id="clip0_5076_3983">
<rect width="32.3963" height="32" fill="white"/>
</clipPath>
</defs>
</svg>
