<svg width="42" height="50" viewBox="0 0 42 50" fill="none" xmlns="http://www.w3.org/2000/svg">
<g id="logo">
<path id="Path" fill-rule="evenodd" clip-rule="evenodd" d="M39.129 12.6692C38.5427 4.52221 35.4647 0.925781 27.9161 0.925781C21.1003 0.925781 17.8757 4.52221 17.0695 12.6692L14.3579 38.5782C14.138 40.7067 13.9914 41.0003 13.112 41.0003C12.2325 41.0003 12.086 40.7067 11.8661 38.5782L9.61757 17.0941C9.3602 14.6349 7.18475 12.8323 4.72057 13.0362C2.37866 13.23 0.637305 15.2857 0.83114 17.6276C0.836358 17.6906 0.842982 17.7536 0.851007 17.8163L3.73119 40.3397C4.61064 47.0922 7.46885 49.0739 13.112 49.0739C16.4099 49.0739 18.6818 48.4868 19.9277 47.239C21.2469 45.9913 22.1264 43.6426 22.4928 40.3397L25.864 13.4032C26.2305 10.3939 26.5969 9.73337 27.7695 9.73337C29.0154 9.73337 29.2352 10.3939 29.4551 13.4032L31.6961 44.2623C31.893 46.9743 34.1507 49.0739 36.8698 49.0739C39.353 49.0739 41.3661 47.0608 41.3661 44.5776C41.3661 44.4722 41.3624 44.3667 41.355 44.2616L39.129 12.6692Z" fill="#D1D1D1"/>
<g id="Mask group">
<mask id="mask0_4373_86992" style="mask-type:alpha" maskUnits="userSpaceOnUse" x="0" y="0" width="42" height="50">
<path id="Path_2" fill-rule="evenodd" clip-rule="evenodd" d="M39.0296 12.6692C38.4448 4.52221 35.3747 0.925781 27.8457 0.925781C21.0477 0.925781 17.8314 4.52221 17.0273 12.6692L14.3227 38.5782C14.1034 40.7067 13.9572 41.0003 13.0801 41.0003C12.2029 41.0003 12.0567 40.7067 11.8374 38.5782L9.59472 17.0941C9.33802 14.6349 7.16822 12.8323 4.71044 13.0362C2.37461 13.23 0.63777 15.2857 0.831101 17.6276C0.836306 17.6906 0.842913 17.7536 0.850917 17.8163L3.72362 40.3397C4.60079 47.0922 7.45158 49.0739 13.0801 49.0739C16.3694 49.0739 18.6355 48.4868 19.8781 47.239C21.1939 45.9913 22.071 43.6426 22.4365 40.3397L25.799 13.4032C26.1645 10.3939 26.53 9.73337 27.6995 9.73337C28.9422 9.73337 29.1615 10.3939 29.3807 13.4032L31.6159 44.2623C31.8123 46.9743 34.0641 49.0739 36.7762 49.0739C39.253 49.0739 41.2608 47.0608 41.2608 44.5776C41.2608 44.4722 41.2571 44.3667 41.2498 44.2616L39.0296 12.6692Z" fill="url(#paint0_linear_4373_86992)"/>
</mask>
<g mask="url(#mask0_4373_86992)">
<rect id="Rectangle 2" x="0.046875" y="0.15625" width="43.3333" height="49.6889" fill="url(#paint1_linear_4373_86992)"/>
</g>
</g>
</g>
<defs>
<linearGradient id="paint0_linear_4373_86992" x1="38.0121" y1="11.3208" x2="7.95034" y2="37.5123" gradientUnits="userSpaceOnUse">
<stop stop-color="#63C0FD"/>
<stop offset="1" stop-color="#6667AB"/>
</linearGradient>
<linearGradient id="paint1_linear_4373_86992" x1="39.8994" y1="10.8839" x2="8.73752" y2="39.0712" gradientUnits="userSpaceOnUse">
<stop stop-color="#63C0FD"/>
<stop offset="1" stop-color="#6667AB"/>
</linearGradient>
</defs>
</svg>
