<svg width="20" height="20" viewBox="0 0 20 20" fill="none" xmlns="http://www.w3.org/2000/svg">
<g id="vuesax/linear/medal-star">
<g id="medal-star">
<path id="Vector" d="M15.8346 7.49935C15.8346 8.70768 15.4763 9.81603 14.8596 10.741C13.9596 12.0744 12.5346 13.016 10.8763 13.2577C10.593 13.3077 10.3013 13.3327 10.0013 13.3327C9.7013 13.3327 9.40964 13.3077 9.1263 13.2577C7.46797 13.016 6.04297 12.0744 5.14297 10.741C4.5263 9.81603 4.16797 8.70768 4.16797 7.49935C4.16797 4.27435 6.7763 1.66602 10.0013 1.66602C13.2263 1.66602 15.8346 4.27435 15.8346 7.49935Z" stroke="#292D32" stroke-width="1.5" stroke-linecap="round" stroke-linejoin="round"/>
<path id="Vector_2" d="M17.7073 15.3917L16.3323 15.7167C16.0239 15.7917 15.7823 16.025 15.7156 16.3333L15.4239 17.5583C15.2656 18.225 14.4156 18.425 13.9739 17.9L9.99893 13.3333L6.02393 17.9083C5.58226 18.4333 4.73226 18.2333 4.57393 17.5667L4.28226 16.3417C4.20726 16.0333 3.96559 15.7917 3.66559 15.725L2.29059 15.4C1.65726 15.25 1.43226 14.4583 1.89059 14L5.14059 10.75C6.04059 12.0833 7.46559 13.025 9.12393 13.2667C9.40726 13.3167 9.69893 13.3417 9.99893 13.3417C10.2989 13.3417 10.5906 13.3167 10.8739 13.2667C12.5323 13.025 13.9573 12.0833 14.8573 10.75L18.1073 14C18.5656 14.45 18.3406 15.2417 17.7073 15.3917Z" stroke="#292D32" stroke-width="1.5" stroke-linecap="round" stroke-linejoin="round"/>
<path id="Vector_3" d="M10.4836 4.98398L10.9753 5.96731C11.042 6.10064 11.217 6.23398 11.3753 6.25898L12.267 6.40898C12.8336 6.50064 12.967 6.91732 12.5586 7.32565L11.867 8.0173C11.7503 8.13397 11.6836 8.35898 11.7253 8.52565L11.9253 9.38398C12.0836 10.059 11.7253 10.3256 11.1253 9.9673L10.292 9.47564C10.142 9.38397 9.89197 9.38397 9.74197 9.47564L8.90864 9.9673C8.30864 10.3173 7.9503 10.059 8.10864 9.38398L8.30864 8.52565C8.34197 8.36732 8.28364 8.13397 8.16697 8.0173L7.4753 7.32565C7.06697 6.91732 7.2003 6.50898 7.76697 6.40898L8.65864 6.25898C8.80864 6.23398 8.98364 6.10064 9.0503 5.96731L9.54197 4.98398C9.78364 4.45065 10.217 4.45065 10.4836 4.98398Z" stroke="#292D32" stroke-width="1.5" stroke-linecap="round" stroke-linejoin="round"/>
</g>
</g>
</svg>
