<svg width="20" height="20" viewBox="0 0 20 20" fill="none" xmlns="http://www.w3.org/2000/svg">
<g id="vuesax/outline/personalcard">
<g id="personalcard">
<path id="Vector" d="M14.168 18.125H5.83464C2.15964 18.125 1.04297 17.0083 1.04297 13.3333V6.66667C1.04297 2.99167 2.15964 1.875 5.83464 1.875H14.168C17.843 1.875 18.9596 2.99167 18.9596 6.66667V13.3333C18.9596 17.0083 17.843 18.125 14.168 18.125ZM5.83464 3.125C2.8513 3.125 2.29297 3.69167 2.29297 6.66667V13.3333C2.29297 16.3083 2.8513 16.875 5.83464 16.875H14.168C17.1513 16.875 17.7096 16.3083 17.7096 13.3333V6.66667C17.7096 3.69167 17.1513 3.125 14.168 3.125H5.83464Z" fill="#292D32"/>
<path id="Vector_2" d="M15.8346 7.29199H11.668C11.3263 7.29199 11.043 7.00866 11.043 6.66699C11.043 6.32533 11.3263 6.04199 11.668 6.04199H15.8346C16.1763 6.04199 16.4596 6.32533 16.4596 6.66699C16.4596 7.00866 16.1763 7.29199 15.8346 7.29199Z" fill="#292D32"/>
<path id="Vector_3" d="M15.8333 10.625H12.5C12.1583 10.625 11.875 10.3417 11.875 10C11.875 9.65833 12.1583 9.375 12.5 9.375H15.8333C16.175 9.375 16.4583 9.65833 16.4583 10C16.4583 10.3417 16.175 10.625 15.8333 10.625Z" fill="#292D32"/>
<path id="Vector_4" d="M15.8346 13.958H14.168C13.8263 13.958 13.543 13.6747 13.543 13.333C13.543 12.9913 13.8263 12.708 14.168 12.708H15.8346C16.1763 12.708 16.4596 12.9913 16.4596 13.333C16.4596 13.6747 16.1763 13.958 15.8346 13.958Z" fill="#292D32"/>
<path id="Vector_5" d="M7.08255 10.0333C5.90755 10.0333 4.94922 9.07493 4.94922 7.89993C4.94922 6.72493 5.90755 5.7666 7.08255 5.7666C8.25755 5.7666 9.21589 6.72493 9.21589 7.89993C9.21589 9.07493 8.25755 10.0333 7.08255 10.0333ZM7.08255 7.0166C6.59922 7.0166 6.19922 7.4166 6.19922 7.89993C6.19922 8.38327 6.59922 8.78327 7.08255 8.78327C7.56589 8.78327 7.96589 8.38327 7.96589 7.89993C7.96589 7.4166 7.56589 7.0166 7.08255 7.0166Z" fill="#292D32"/>
<path id="Vector_6" d="M10.0009 14.2335C9.68423 14.2335 9.40923 13.9918 9.3759 13.6668C9.28423 12.7668 8.55923 12.0418 7.6509 11.9585C7.26757 11.9251 6.88423 11.9251 6.5009 11.9585C5.59257 12.0418 4.86757 12.7585 4.7759 13.6668C4.74257 14.0085 4.43423 14.2668 4.09256 14.2251C3.7509 14.1918 3.5009 13.8835 3.53423 13.5418C3.68423 12.0418 4.8759 10.8501 6.38423 10.7168C6.84257 10.6751 7.30923 10.6751 7.76756 10.7168C9.26756 10.8585 10.4676 12.0501 10.6176 13.5418C10.6509 13.8835 10.4009 14.1918 10.0592 14.2251C10.0426 14.2335 10.0176 14.2335 10.0009 14.2335Z" fill="#292D32"/>
</g>
</g>
</svg>
