<svg width="20" height="20" viewBox="0 0 20 20" fill="none" xmlns="http://www.w3.org/2000/svg">
<g id="vuesax/outline/message-2">
<g id="message-2">
<path id="Vector" d="M12.9154 9.375H7.08203C6.74036 9.375 6.45703 9.09167 6.45703 8.75C6.45703 8.40833 6.74036 8.125 7.08203 8.125H12.9154C13.257 8.125 13.5404 8.40833 13.5404 8.75C13.5404 9.09167 13.257 9.375 12.9154 9.375Z" fill="#292D32"/>
<path id="Vector_2" d="M13.3346 18.5999C13.0513 18.5999 12.768 18.5166 12.5263 18.3582L8.97629 15.9915H5.83464C2.96797 15.9915 1.04297 14.0665 1.04297 11.1999V6.19987C1.04297 3.3332 2.96797 1.4082 5.83464 1.4082H14.168C17.0346 1.4082 18.9596 3.3332 18.9596 6.19987V11.1999C18.9596 13.8499 17.3096 15.6999 14.793 15.9582V17.1415C14.793 17.6832 14.5013 18.1749 14.0263 18.4249C13.8096 18.5415 13.568 18.5999 13.3346 18.5999ZM5.83464 2.64986C3.68464 2.64986 2.29297 4.04153 2.29297 6.19153V11.1915C2.29297 13.3415 3.68464 14.7332 5.83464 14.7332H9.16797C9.29297 14.7332 9.40965 14.7665 9.51798 14.8415L13.2263 17.3082C13.318 17.3665 13.4013 17.3416 13.443 17.3166C13.4846 17.2916 13.5513 17.2415 13.5513 17.1332V15.3582C13.5513 15.0165 13.8346 14.7332 14.1763 14.7332C16.3263 14.7332 17.718 13.3415 17.718 11.1915V6.19153C17.718 4.04153 16.3263 2.64986 14.1763 2.64986H5.83464Z" fill="#292D32"/>
</g>
</g>
</svg>
