<svg width="20" height="20" viewBox="0 0 20 20" fill="none" xmlns="http://www.w3.org/2000/svg">
<g id="vuesax/outline/mobile">
<g id="mobile">
<path id="Vector" d="M12.4987 18.9587H7.4987C3.8237 18.9587 2.70703 17.842 2.70703 14.167V5.83366C2.70703 2.15866 3.8237 1.04199 7.4987 1.04199H12.4987C16.1737 1.04199 17.2904 2.15866 17.2904 5.83366V14.167C17.2904 17.842 16.1737 18.9587 12.4987 18.9587ZM7.4987 2.29199C4.51536 2.29199 3.95703 2.85866 3.95703 5.83366V14.167C3.95703 17.142 4.51536 17.7087 7.4987 17.7087H12.4987C15.482 17.7087 16.0404 17.142 16.0404 14.167V5.83366C16.0404 2.85866 15.482 2.29199 12.4987 2.29199H7.4987Z" fill="#292D32"/>
<path id="Vector_2" d="M11.6654 5.20801H8.33203C7.99036 5.20801 7.70703 4.92467 7.70703 4.58301C7.70703 4.24134 7.99036 3.95801 8.33203 3.95801H11.6654C12.007 3.95801 12.2904 4.24134 12.2904 4.58301C12.2904 4.92467 12.007 5.20801 11.6654 5.20801Z" fill="#292D32"/>
<path id="Vector_3" d="M9.9987 16.5501C8.94036 16.5501 8.08203 15.6918 8.08203 14.6335C8.08203 13.5751 8.94036 12.7168 9.9987 12.7168C11.057 12.7168 11.9154 13.5751 11.9154 14.6335C11.9154 15.6918 11.057 16.5501 9.9987 16.5501ZM9.9987 13.9585C9.63203 13.9585 9.33203 14.2585 9.33203 14.6251C9.33203 14.9918 9.63203 15.2918 9.9987 15.2918C10.3654 15.2918 10.6654 14.9918 10.6654 14.6251C10.6654 14.2585 10.3654 13.9585 9.9987 13.9585Z" fill="#292D32"/>
</g>
</g>
</svg>
