<svg width="25" height="25" viewBox="0 0 25 25" fill="none" xmlns="http://www.w3.org/2000/svg">
<g id="vuesax/outline/home-2">
<g id="home-2">
<path id="Vector" d="M4.36964 8.12176L4.36965 8.12177L9.75947 3.92191C10.4274 3.40107 11.3032 3.14986 12.1517 3.13144C13.0003 3.11302 13.8876 3.32598 14.5827 3.81366L4.36964 8.12176ZM4.36964 8.12176L4.36687 8.12395C3.91988 8.47651 3.53528 9.01649 3.26393 9.56746C2.99294 10.1177 2.79844 10.7529 2.79844 11.3251V18.7351C2.79844 20.9742 4.61482 22.8051 6.85844 22.8051H18.4384C20.6798 22.8051 22.4984 20.9864 22.4984 18.7451V11.4651C22.4984 10.8586 22.2864 10.1897 21.9867 9.61506C21.6878 9.04216 21.2614 8.48556 20.7601 8.14184L14.5831 3.81392L4.36964 8.12176ZM4.1868 7.88866L4.18723 7.88833L9.5768 3.68866C9.57689 3.6886 9.57697 3.68853 9.57706 3.68846C10.9884 2.59099 13.2888 2.53719 14.7536 3.56604L14.7541 3.56644L20.9341 7.89644L20.9352 7.89717C21.4331 8.24446 21.905 8.81421 22.2528 9.48031C22.6007 10.1464 22.7984 10.8588 22.7984 11.4651V18.7451C22.7984 21.1445 20.8463 23.1051 18.4384 23.1051H6.85844C4.45138 23.1051 2.49844 21.1453 2.49844 18.7351V11.3251C2.49844 10.7585 2.6766 10.0818 2.992 9.43954C3.3073 8.79751 3.73527 8.23986 4.1868 7.88866Z" fill="#9292A0" stroke="#9292A0" stroke-width="1.2"/>
<path id="Vector_2" d="M12.6484 19.1051C12.6123 19.1051 12.5747 19.0903 12.544 19.0596C12.5132 19.0288 12.4984 18.9913 12.4984 18.9551V15.9551C12.4984 15.9189 12.5132 15.8814 12.544 15.8506C12.5747 15.8198 12.6123 15.8051 12.6484 15.8051C12.6846 15.8051 12.7222 15.8198 12.7529 15.8506C12.7837 15.8814 12.7984 15.9189 12.7984 15.9551V18.9551C12.7984 18.9913 12.7837 19.0288 12.7529 19.0596C12.7222 19.0903 12.6846 19.1051 12.6484 19.1051Z" fill="#9292A0" stroke="#9292A0" stroke-width="1.2"/>
</g>
</g>
</svg>
