<svg width="25" height="24" viewBox="0 0 25 24" fill="none" xmlns="http://www.w3.org/2000/svg">
<g id="vuesax/outline/frame">
<g id="frame">
<path id="Vector" d="M12.4035 10.5611L12.4619 10.5632L12.5029 10.5549C12.5133 10.5544 12.5295 10.5539 12.5511 10.5539C12.5955 10.5539 12.6502 10.5559 12.7027 10.5599L12.7334 10.5623L12.764 10.5609C14.9926 10.4585 16.7398 8.62761 16.7511 6.38393V6.38141C16.7511 4.07526 14.8672 2.19141 12.5611 2.19141C10.255 2.19141 8.37109 4.07526 8.37109 6.38141C8.37109 8.65096 10.1446 10.4816 12.4035 10.5611ZM12.7211 11.0614H12.7209H12.7207H12.7206H12.7204H12.7202H12.72H12.7199H12.7197H12.7195H12.7193H12.7192H12.719H12.7188H12.7187H12.7185H12.7183H12.7181H12.718H12.7178H12.7176H12.7175H12.7173H12.7171H12.7169H12.7168H12.7166H12.7164H12.7163H12.7161H12.7159H12.7157H12.7156H12.7154H12.7152H12.7151H12.7149H12.7147H12.7146H12.7144H12.7142H12.7141H12.7139H12.7137H12.7136H12.7134H12.7132H12.7131H12.7129H12.7127H12.7126H12.7124H12.7122H12.7121H12.7119H12.7117H12.7116H12.7114H12.7113H12.7111H12.7109H12.7108H12.7106H12.7104H12.7103H12.7101H12.7099H12.7098H12.7096H12.7095H12.7093H12.7091H12.709H12.7088H12.7087H12.7085H12.7083H12.7082H12.708H12.7078H12.7077H12.7075H12.7074H12.7072H12.707H12.7069H12.7067H12.7066H12.7064H12.7063H12.7061H12.7059H12.7058H12.7056H12.7055H12.7053H12.7051H12.705H12.7048H12.7047H12.7045H12.7044H12.7042H12.704H12.7039H12.7037H12.7036H12.7034H12.7033H12.7031H12.7029H12.7028H12.7026H12.7025H12.7023H12.7022H12.702H12.7019H12.7017H12.7015H12.7014H12.7012H12.7011H12.7009H12.7008H12.7006H12.7005H12.7003H12.7002H12.7H12.6998H12.6997H12.6995H12.6994H12.6992H12.6991H12.6989H12.6988H12.6986H12.6985H12.6983H12.6982H12.698H12.6979H12.6977H12.6976H12.6974H12.6973H12.6971H12.6969H12.6968H12.6966H12.6965H12.6963H12.6962H12.696H12.6959H12.6957H12.6956H12.6954H12.6953H12.6951H12.695H12.6948H12.6947H12.6945H12.6944H12.6942H12.6941H12.6939H12.6938H12.6936H12.6935H12.6933H12.6932H12.693H12.6929H12.6927H12.6926H12.6924H12.6923H12.6921H12.692H12.6918H12.6917H12.6915H12.6914H12.6912H12.6911H12.691H12.6908H12.6907H12.6905H12.6904H12.6902H12.6901H12.6899H12.6898H12.6896H12.6895H12.6893H12.6892H12.689H12.6889H12.6887H12.6886H12.6884H12.6883H12.6881H12.688H12.6878H12.6877H12.6876H12.6874H12.6873H12.6871H12.687H12.6868H12.6867H12.6865H12.6864H12.6862H12.6861H12.6859H12.6858H12.6856H12.6855H12.6853H12.6852H12.6851H12.6849H12.6848H12.6846H12.6845H12.6843H12.6842H12.684H12.6839H12.6837H12.6836H12.6834H12.6833H12.6831H12.683H12.6829H12.6827H12.6826H12.6824H12.6823H12.6821H12.682H12.6818H12.6817H12.6815H12.6814H12.6812H12.6811H12.6809H12.6808H12.6807H12.6805H12.6804H12.6802H12.6801H12.6799H12.6798H12.6796H12.6795H12.6793H12.6792H12.679H12.679C12.5977 11.0512 12.5135 11.052 12.437 11.0603C9.82373 10.9592 7.87109 8.90549 7.87109 6.38141C7.87109 3.79755 9.97724 1.69141 12.5611 1.69141C15.1446 1.69141 17.2506 3.79702 17.2511 6.38044C17.2416 8.92138 15.2567 10.9762 12.7428 11.0614H12.7428H12.7428H12.7427H12.7427H12.7426H12.7425H12.7425H12.7424H12.7424H12.7423H12.7422H12.7422H12.7421H12.7421H12.742H12.742H12.7419H12.7418H12.7418H12.7417H12.7417H12.7416H12.7415H12.7415H12.7414H12.7414H12.7413H12.7412H12.7412H12.7411H12.7411H12.741H12.741H12.7409H12.7408H12.7408H12.7407H12.7407H12.7406H12.7405H12.7405H12.7404H12.7404H12.7403H12.7403H12.7402H12.7401H12.7401H12.74H12.74H12.7399H12.7398H12.7398H12.7397H12.7397H12.7396H12.7396H12.7395H12.7394H12.7394H12.7393H12.7393H12.7392H12.7391H12.7391H12.739H12.739H12.7389H12.7388H12.7388H12.7387H12.7387H12.7386H12.7386H12.7385H12.7384H12.7384H12.7383H12.7383H12.7382H12.7381H12.7381H12.738H12.738H12.7379H12.7379H12.7378H12.7377H12.7377H12.7376H12.7376H12.7375H12.7374H12.7374H12.7373H12.7373H12.7372H12.7371H12.7371H12.737H12.737H12.7369H12.7369H12.7368H12.7367H12.7367H12.7366H12.7366H12.7365H12.7364H12.7364H12.7363H12.7363H12.7362H12.7362H12.7361H12.736H12.736H12.7359H12.7359H12.7358H12.7357H12.7357H12.7356H12.7356H12.7355H12.7354H12.7354H12.7353H12.7353H12.7352H12.7352H12.7351H12.735H12.735H12.7349H12.7349H12.7348H12.7347H12.7347H12.7346H12.7346H12.7345H12.7345H12.7344H12.7343H12.7343H12.7342H12.7342H12.7341H12.734H12.734H12.7339H12.7339H12.7338H12.7337H12.7337H12.7336H12.7336H12.7335H12.7335H12.7334H12.7333H12.7333H12.7332H12.7332H12.7331H12.733H12.733H12.7329H12.7329H12.7328H12.7328H12.7327H12.7326H12.7326H12.7325H12.7325H12.7324H12.7323H12.7323H12.7322H12.7322H12.7321H12.7321H12.732H12.7319H12.7319H12.7318H12.7318H12.7317H12.7316H12.7316H12.7315H12.7315H12.7314H12.7313H12.7313H12.7312H12.7312H12.7311H12.7311H12.731H12.7309H12.7309H12.7308H12.7308H12.7307H12.7306H12.7306H12.7305H12.7305H12.7304H12.7304H12.7303H12.7302H12.7302H12.7301H12.7301H12.73H12.7299H12.7299H12.7298H12.7298H12.7297H12.7296H12.7296H12.7295H12.7295H12.7294H12.7294H12.7293H12.7292H12.7292H12.7291H12.7291H12.729H12.7289H12.7289H12.7288H12.7288H12.7287H12.7287H12.7286H12.7285H12.7285H12.7284H12.7284H12.7283H12.7282H12.7282H12.7281H12.7281H12.728H12.7279H12.7279H12.7278H12.7278H12.7277H12.7277H12.7276H12.7275H12.7275H12.7274H12.7274H12.7273H12.7272H12.7272H12.7271H12.7271H12.727H12.727H12.7269H12.7268H12.7268H12.7267H12.7267H12.7266H12.7265H12.7265H12.7264H12.7264H12.7263H12.7263H12.7262H12.7261H12.7261H12.726H12.726H12.7259H12.7258H12.7258H12.7257H12.7257H12.7256H12.7255H12.7255H12.7254H12.7254H12.7253H12.7253H12.7252H12.7251H12.7251H12.725H12.725H12.7249H12.7248H12.7248H12.7247H12.7247H12.7246H12.7246H12.7245H12.7244H12.7244H12.7243H12.7243H12.7242H12.7241H12.7241H12.724H12.724H12.7239H12.7238H12.7238H12.7237H12.7237H12.7236H12.7236H12.7235H12.7234H12.7234H12.7233H12.7233H12.7232H12.7231H12.7231H12.723H12.723H12.7229H12.7229H12.7228H12.7227H12.7227H12.7226H12.7226H12.7225H12.7224H12.7224H12.7223H12.7223H12.7222H12.7221H12.7221H12.722H12.722H12.7219H12.7219H12.7218H12.7217H12.7217H12.7216H12.7216H12.7215H12.7214H12.7214H12.7213H12.7213H12.7212H12.7212H12.7211Z" fill="#9292A0" stroke="#9292A0"/>
<path id="Vector_2" d="M7.5927 20.5762L7.59003 20.5745C6.30621 19.7247 5.66406 18.6069 5.66406 17.4414C5.66406 16.2751 6.30714 15.147 7.59127 14.2875C8.99277 13.3582 10.8559 12.8789 12.7416 12.8789C14.6277 12.8789 16.4855 13.3584 17.8764 14.2872L17.8767 14.2874C19.1534 15.1386 19.8041 16.2575 19.8041 17.4214C19.8041 18.5879 19.1608 19.7161 17.8764 20.5756C16.4748 21.5099 14.6167 21.9914 12.7341 21.9914C10.8504 21.9914 8.98315 21.5094 7.5927 20.5762ZM7.86671 14.7154C6.81859 15.4141 6.16406 16.3711 6.16406 17.4514C6.16406 18.5244 6.83151 19.4806 7.86665 20.1674C9.21287 21.0699 10.9885 21.5039 12.7341 21.5039C14.4798 21.5039 16.2556 21.0698 17.6018 20.1671C18.6497 19.4684 19.3041 18.5116 19.3041 17.4314C19.3041 16.3582 18.6364 15.4019 17.6009 14.715C16.2548 13.8178 14.4794 13.3864 12.7341 13.3864C10.9885 13.3864 9.2129 13.8179 7.86671 14.7154Z" fill="#9292A0" stroke="#9292A0"/>
</g>
</g>
</svg>
