<svg width="25" height="25" viewBox="0 0 25 25" fill="none" xmlns="http://www.w3.org/2000/svg">
<g id="vuesax/outline/frame">
<g id="frame">
<path id="Vector" d="M12.7211 12.5165C12.6911 12.5165 12.6711 12.5165 12.6411 12.5165C12.5911 12.5065 12.5211 12.5065 12.4611 12.5165C9.56109 12.4265 7.37109 10.1465 7.37109 7.33648C7.37109 4.47648 9.70109 2.14648 12.5611 2.14648C15.4211 2.14648 17.7511 4.47648 17.7511 7.33648C17.7411 10.1465 15.5411 12.4265 12.7511 12.5165C12.7411 12.5165 12.7311 12.5165 12.7211 12.5165ZM12.5611 3.64648C10.5311 3.64648 8.87109 5.30648 8.87109 7.33648C8.87109 9.33648 10.4311 10.9465 12.4211 11.0165C12.4711 11.0065 12.6111 11.0065 12.7411 11.0165C14.7011 10.9265 16.2411 9.31648 16.2511 7.33648C16.2511 5.30648 14.5911 3.64648 12.5611 3.64648Z" fill="#2C91D4" stroke="#2C91D4" stroke-width="0.5"/>
<path id="Vector_2" d="M12.7341 23.4465C10.7741 23.4465 8.80406 22.9465 7.31406 21.9465C5.92406 21.0265 5.16406 19.7665 5.16406 18.3965C5.16406 17.0265 5.92406 15.7565 7.31406 14.8265C10.3141 12.8365 15.1741 12.8365 18.1541 14.8265C19.5341 15.7465 20.3041 17.0065 20.3041 18.3765C20.3041 19.7465 19.5441 21.0165 18.1541 21.9465C16.6541 22.9465 14.6941 23.4465 12.7341 23.4465ZM8.14406 16.0865C7.18406 16.7265 6.66406 17.5465 6.66406 18.4065C6.66406 19.2565 7.19406 20.0765 8.14406 20.7065C10.6341 22.3765 14.8341 22.3765 17.3241 20.7065C18.2841 20.0665 18.8041 19.2465 18.8041 18.3865C18.8041 17.5365 18.2741 16.7165 17.3241 16.0865C14.8341 14.4265 10.6341 14.4265 8.14406 16.0865Z" fill="#2C91D4" stroke="#2C91D4" stroke-width="0.5"/>
</g>
</g>
</svg>
