<svg width="20" height="20" viewBox="0 0 20 20" fill="none" xmlns="http://www.w3.org/2000/svg">
<g id="vuesax/outline/document-text">
<g id="document-text">
<path id="Vector" d="M12.5013 18.9587H7.5013C2.9763 18.9587 1.04297 17.0253 1.04297 12.5003V7.50033C1.04297 2.97533 2.9763 1.04199 7.5013 1.04199H11.668C12.0096 1.04199 12.293 1.32533 12.293 1.66699C12.293 2.00866 12.0096 2.29199 11.668 2.29199H7.5013C3.65964 2.29199 2.29297 3.65866 2.29297 7.50033V12.5003C2.29297 16.342 3.65964 17.7087 7.5013 17.7087H12.5013C16.343 17.7087 17.7096 16.342 17.7096 12.5003V8.33366C17.7096 7.99199 17.993 7.70866 18.3346 7.70866C18.6763 7.70866 18.9596 7.99199 18.9596 8.33366V12.5003C18.9596 17.0253 17.0263 18.9587 12.5013 18.9587Z" fill="#292D32"/>
<path id="Vector_2" d="M18.3346 8.95841H15.0013C12.1513 8.95841 11.043 7.85007 11.043 5.00007V1.66674C11.043 1.41674 11.193 1.18341 11.4263 1.09174C11.6596 0.991739 11.9263 1.05007 12.1096 1.22507L18.7763 7.89174C18.9513 8.06674 19.0096 8.34174 18.9096 8.57507C18.8096 8.8084 18.5846 8.95841 18.3346 8.95841ZM12.293 3.17507V5.00007C12.293 7.15007 12.8513 7.70841 15.0013 7.70841H16.8263L12.293 3.17507Z" fill="#292D32"/>
<path id="Vector_3" d="M10.832 11.458H5.83203C5.49036 11.458 5.20703 11.1747 5.20703 10.833C5.20703 10.4913 5.49036 10.208 5.83203 10.208H10.832C11.1737 10.208 11.457 10.4913 11.457 10.833C11.457 11.1747 11.1737 11.458 10.832 11.458Z" fill="#292D32"/>
<path id="Vector_4" d="M9.16536 14.792H5.83203C5.49036 14.792 5.20703 14.5087 5.20703 14.167C5.20703 13.8253 5.49036 13.542 5.83203 13.542H9.16536C9.50703 13.542 9.79036 13.8253 9.79036 14.167C9.79036 14.5087 9.50703 14.792 9.16536 14.792Z" fill="#292D32"/>
</g>
</g>
</svg>
