<svg width="16" height="16" viewBox="0 0 16 16" fill="none" xmlns="http://www.w3.org/2000/svg">
<g id="vuesax/outline/repeat">
<g id="repeat">
<path id="Vector" d="M13.6134 8.14689C13.3401 8.14689 13.1134 7.92022 13.1134 7.64689V5.43359C13.1134 4.60693 12.4401 3.93359 11.6134 3.93359H2.38672C2.11339 3.93359 1.88672 3.70693 1.88672 3.43359C1.88672 3.16026 2.11339 2.93359 2.38672 2.93359H11.6134C12.9934 2.93359 14.1134 4.05359 14.1134 5.43359V7.64689C14.1134 7.92689 13.8867 8.14689 13.6134 8.14689Z" fill="#414042"/>
<path id="Vector_2" d="M4.49339 6.04763C4.36672 6.04763 4.24006 6.00094 4.14006 5.90094L2.03339 3.79429C1.94005 3.70096 1.88672 3.57427 1.88672 3.44094C1.88672 3.30761 1.94005 3.18096 2.03339 3.08763L4.14006 0.980938C4.33339 0.787604 4.65339 0.787604 4.84672 0.980938C5.04005 1.17427 5.04005 1.49431 4.84672 1.68764L3.0934 3.44094L4.84672 5.19428C5.04005 5.38761 5.04005 5.70761 4.84672 5.90094C4.74672 5.99427 4.62005 6.04763 4.49339 6.04763Z" fill="#414042"/>
<path id="Vector_3" d="M13.6134 13.061H4.38672C3.00672 13.061 1.88672 11.941 1.88672 10.561V8.34766C1.88672 8.07432 2.11339 7.84766 2.38672 7.84766C2.66005 7.84766 2.88672 8.07432 2.88672 8.34766V10.561C2.88672 11.3877 3.56005 12.061 4.38672 12.061H13.6134C13.8867 12.061 14.1134 12.2877 14.1134 12.561C14.1134 12.8343 13.8867 13.061 13.6134 13.061Z" fill="#414042"/>
<path id="Vector_4" d="M11.5061 15.1667C11.3795 15.1667 11.2528 15.1201 11.1528 15.0201C10.9595 14.8267 10.9595 14.5067 11.1528 14.3134L12.9061 12.5601L11.1528 10.8067C10.9595 10.6134 10.9595 10.2934 11.1528 10.1001C11.3461 9.90674 11.6661 9.90674 11.8595 10.1001L13.9661 12.2067C14.0595 12.3001 14.1128 12.4267 14.1128 12.5601C14.1128 12.6934 14.0595 12.8201 13.9661 12.9134L11.8595 15.0201C11.7661 15.1201 11.6395 15.1667 11.5061 15.1667Z" fill="#414042"/>
</g>
</g>
</svg>
