<svg width="20" height="20" viewBox="0 0 20 20" fill="none" xmlns="http://www.w3.org/2000/svg">
<g id="vuesax/outline/people">
<g id="people">
<path id="Vector" d="M14.999 6.59148C14.974 6.59148 14.9573 6.59148 14.9323 6.59148H14.8906C13.3156 6.54148 12.1406 5.32481 12.1406 3.82481C12.1406 2.29147 13.3906 1.0498 14.9156 1.0498C16.4406 1.0498 17.6906 2.29981 17.6906 3.82481C17.6823 5.33314 16.5073 6.54981 15.0073 6.59981C15.0073 6.59147 15.0073 6.59148 14.999 6.59148ZM14.9156 2.29148C14.074 2.29148 13.3906 2.97481 13.3906 3.81648C13.3906 4.64148 14.0323 5.30815 14.8573 5.34148C14.8656 5.33315 14.9323 5.33315 15.0073 5.34148C15.8156 5.29981 16.4406 4.63314 16.449 3.81648C16.449 2.97481 15.7656 2.29148 14.9156 2.29148Z" fill="#292D32"/>
<path id="Vector_2" d="M15.0097 12.7329C14.6847 12.7329 14.3597 12.7079 14.0347 12.6495C13.6931 12.5912 13.4681 12.2662 13.5264 11.9246C13.5847 11.5829 13.9097 11.3579 14.2514 11.4162C15.2764 11.5912 16.3597 11.3996 17.0847 10.9162C17.4764 10.6579 17.6847 10.3329 17.6847 10.0079C17.6847 9.68288 17.4681 9.36622 17.0847 9.10788C16.3597 8.62455 15.2597 8.43289 14.2264 8.61622C13.8847 8.68289 13.5597 8.44955 13.5014 8.10789C13.4431 7.76622 13.6681 7.44122 14.0097 7.38289C15.3681 7.14122 16.7764 7.39955 17.7764 8.06622C18.5097 8.55788 18.9347 9.25788 18.9347 10.0079C18.9347 10.7496 18.5181 11.4579 17.7764 11.9579C17.0181 12.4579 16.0347 12.7329 15.0097 12.7329Z" fill="#292D32"/>
<path id="Vector_3" d="M4.97344 6.592C4.96511 6.592 4.95677 6.592 4.95677 6.592C3.45677 6.542 2.28177 5.32532 2.27344 3.82532C2.27344 2.29199 3.52344 1.04199 5.04844 1.04199C6.57344 1.04199 7.82344 2.29199 7.82344 3.81699C7.82344 5.32533 6.64844 6.542 5.14844 6.592L4.97344 5.967L5.03177 6.592C5.01511 6.592 4.99011 6.592 4.97344 6.592ZM5.05677 5.342C5.10677 5.342 5.14844 5.34199 5.19844 5.35032C5.94011 5.31699 6.5901 4.65032 6.5901 3.82532C6.5901 2.98366 5.90677 2.30032 5.06511 2.30032C4.22344 2.30032 3.5401 2.98366 3.5401 3.82532C3.5401 4.64199 4.17344 5.30032 4.98177 5.35032C4.9901 5.34199 5.02344 5.342 5.05677 5.342Z" fill="#292D32"/>
<path id="Vector_4" d="M4.96797 12.7329C3.94297 12.7329 2.95964 12.4579 2.2013 11.9579C1.46797 11.4662 1.04297 10.7579 1.04297 10.0079C1.04297 9.26622 1.46797 8.55788 2.2013 8.06622C3.2013 7.39955 4.60964 7.14122 5.96797 7.38289C6.30964 7.44122 6.53464 7.76622 6.4763 8.10789C6.41797 8.44955 6.09297 8.68289 5.7513 8.61622C4.71797 8.43289 3.6263 8.62455 2.89297 9.10788C2.5013 9.36622 2.29297 9.68288 2.29297 10.0079C2.29297 10.3329 2.50964 10.6579 2.89297 10.9162C3.61797 11.3996 4.7013 11.5912 5.7263 11.4162C6.06797 11.3579 6.39297 11.5912 6.4513 11.9246C6.50964 12.2662 6.28464 12.5912 5.94297 12.6495C5.61797 12.7079 5.29297 12.7329 4.96797 12.7329Z" fill="#292D32"/>
<path id="Vector_5" d="M9.99896 12.8171C9.97396 12.8171 9.95729 12.8171 9.93229 12.8171H9.89062C8.31562 12.7671 7.14062 11.5504 7.14062 10.0504C7.14062 8.51706 8.39063 7.27539 9.91563 7.27539C11.4406 7.27539 12.6906 8.52539 12.6906 10.0504C12.6823 11.5587 11.5073 12.7754 10.0073 12.8254C10.0073 12.8171 10.0073 12.8171 9.99896 12.8171ZM9.91563 8.51706C9.07396 8.51706 8.39062 9.2004 8.39062 10.0421C8.39062 10.8671 9.03229 11.5337 9.85729 11.5671C9.86563 11.5587 9.93229 11.5587 10.0073 11.5671C10.8156 11.5254 11.4406 10.8587 11.449 10.0421C11.449 9.20873 10.7656 8.51706 9.91563 8.51706Z" fill="#292D32"/>
<path id="Vector_6" d="M9.99974 18.9666C8.99974 18.9666 7.99974 18.7083 7.22474 18.1833C6.49141 17.6916 6.06641 16.9916 6.06641 16.2416C6.06641 15.4999 6.48307 14.7833 7.22474 14.2916C8.78307 13.2583 11.2247 13.2583 12.7747 14.2916C13.5081 14.7833 13.9331 15.4833 13.9331 16.2333C13.9331 16.9749 13.5164 17.6916 12.7747 18.1833C11.9997 18.6999 10.9997 18.9666 9.99974 18.9666ZM7.91641 15.3416C7.52474 15.5999 7.31641 15.9249 7.31641 16.2499C7.31641 16.5749 7.53307 16.8916 7.91641 17.1499C9.04141 17.9083 10.9497 17.9083 12.0747 17.1499C12.4664 16.8916 12.6747 16.5666 12.6747 16.2416C12.6747 15.9166 12.4581 15.5999 12.0747 15.3416C10.9581 14.5833 9.04974 14.5916 7.91641 15.3416Z" fill="#292D32"/>
</g>
</g>
</svg>
