<svg width="20" height="20" viewBox="0 0 20 20" fill="none" xmlns="http://www.w3.org/2000/svg">
<g id="vuesax/outline/translate">
<g id="translate">
<path id="Vector" d="M12.3248 16.1833C12.2332 16.1833 12.1332 16.1583 12.0498 16.1167C11.7415 15.9583 11.6165 15.5833 11.7665 15.275L13.5498 11.7166C13.6582 11.5083 13.8748 11.375 14.1082 11.375C14.3415 11.375 14.5582 11.5083 14.6665 11.725L16.4498 15.2833C16.6082 15.5917 16.4832 15.9666 16.1665 16.125C15.8582 16.2833 15.4832 16.1583 15.3248 15.8417L14.1082 13.4L12.8915 15.8417C12.7748 16.0583 12.5498 16.1833 12.3248 16.1833Z" fill="#292D32"/>
<path id="Vector_2" d="M15.5661 15.5498H12.6328C12.2911 15.5498 12.0078 15.2665 12.0078 14.9248C12.0078 14.5831 12.2911 14.2998 12.6328 14.2998H15.5661C15.9078 14.2998 16.1911 14.5831 16.1911 14.9248C16.1911 15.2665 15.9161 15.5498 15.5661 15.5498Z" fill="#292D32"/>
<path id="Vector_3" d="M14.1005 18.9588C11.4255 18.9588 9.24219 16.7838 9.24219 14.1005C9.24219 11.4172 11.4172 9.24219 14.1005 9.24219C16.7755 9.24219 18.9589 11.4172 18.9589 14.1005C18.9589 16.7838 16.7839 18.9588 14.1005 18.9588ZM14.1005 10.5005C12.1089 10.5005 10.4922 12.1172 10.4922 14.1088C10.4922 16.1005 12.1089 17.7172 14.1005 17.7172C16.0839 17.7172 17.7089 16.1005 17.7089 14.1088C17.7089 12.1172 16.0922 10.5005 14.1005 10.5005Z" fill="#292D32"/>
<path id="Vector_4" d="M4.0513 10.5832C3.1263 10.5832 2.39297 10.3249 1.8763 9.82486C1.3263 9.29153 1.04297 8.4832 1.04297 7.44154V4.17489C1.04297 2.14989 2.15964 1.0332 4.18464 1.0332H7.4513C8.49297 1.0332 9.29297 1.3082 9.83464 1.86654C10.3596 2.4082 10.618 3.19157 10.593 4.19157V7.44154C10.618 8.45821 10.3596 9.25822 9.81797 9.79989C9.2763 10.3416 8.4763 10.5915 7.44296 10.5749H4.19297C4.13463 10.5832 4.09297 10.5832 4.0513 10.5832ZM4.18464 2.29154C2.84297 2.29154 2.29297 2.84156 2.29297 4.18323V7.44988C2.29297 8.14155 2.44296 8.64152 2.74296 8.93319C3.03463 9.21652 3.50131 9.34155 4.15964 9.33322H7.44296C8.14296 9.34989 8.6263 9.20822 8.91797 8.91655C9.20963 8.62489 9.34297 8.13322 9.3263 7.45822V4.17489C9.34297 3.50822 9.20964 3.03319 8.92631 2.74153C8.63464 2.44153 8.13463 2.29154 7.44296 2.29154H4.18464Z" fill="#292D32"/>
<path id="Vector_5" d="M7.50052 5.5H4.11719C3.77552 5.5 3.49219 5.21667 3.49219 4.875C3.49219 4.53333 3.77552 4.25 4.11719 4.25H7.50052C7.84219 4.25 8.12552 4.53333 8.12552 4.875C8.12552 5.21667 7.85052 5.5 7.50052 5.5Z" fill="#292D32"/>
<path id="Vector_6" d="M5.81641 5.50025C5.47474 5.50025 5.19141 5.21692 5.19141 4.87525V4.30859C5.19141 3.96693 5.47474 3.68359 5.81641 3.68359C6.15807 3.68359 6.44141 3.96693 6.44141 4.30859V4.87525C6.44141 5.21692 6.15807 5.50025 5.81641 5.50025Z" fill="#292D32"/>
<path id="Vector_7" d="M4.11719 8.13286C3.77552 8.13286 3.49219 7.84953 3.49219 7.50786C3.49219 7.1662 3.77552 6.88286 4.11719 6.88286C5.17552 6.88286 6.03386 5.98288 6.03386 4.86621C6.03386 4.52454 6.31719 4.24121 6.65886 4.24121C7.00052 4.24121 7.28386 4.52454 7.28386 4.86621C7.28386 6.66621 5.86719 8.13286 4.11719 8.13286Z" fill="#292D32"/>
<path id="Vector_8" d="M7.50673 8.13339C6.73173 8.13339 5.99007 7.74173 5.46507 7.05007C5.25674 6.77507 5.31508 6.38336 5.59008 6.17502C5.86508 5.96669 6.25673 6.02505 6.46507 6.30005C6.7484 6.68338 7.1234 6.89173 7.50673 6.89173C7.8484 6.89173 8.13173 7.17506 8.13173 7.51673C8.13173 7.8584 7.8484 8.13339 7.50673 8.13339Z" fill="#292D32"/>
<path id="Vector_9" d="M7.5013 18.9583C3.94297 18.9583 1.04297 16.0583 1.04297 12.5C1.04297 12.1583 1.3263 11.875 1.66797 11.875C2.00964 11.875 2.29297 12.1583 2.29297 12.5C2.29297 14.9667 4.00964 17.0334 6.31797 17.575L6.09297 17.2C5.91797 16.9 6.00964 16.5167 6.30964 16.3417C6.60131 16.1667 6.99297 16.2583 7.16797 16.5583L8.04296 18.0167C8.15963 18.2083 8.15964 18.45 8.05131 18.6417C7.93464 18.8333 7.7263 18.9583 7.5013 18.9583Z" fill="#292D32"/>
<path id="Vector_10" d="M18.3347 8.12533C17.993 8.12533 17.7097 7.84199 17.7097 7.50033C17.7097 5.03366 15.993 2.96697 13.6847 2.4253L13.9097 2.80031C14.0847 3.10031 13.993 3.48367 13.693 3.65867C13.4013 3.83367 13.0097 3.742 12.8347 3.442L11.9597 1.98366C11.843 1.792 11.843 1.55033 11.9513 1.35866C12.0597 1.15866 12.268 1.04199 12.493 1.04199C16.0513 1.04199 18.9513 3.94199 18.9513 7.50033C18.9597 7.84199 18.6763 8.12533 18.3347 8.12533Z" fill="#292D32"/>
</g>
</g>
</svg>
