<svg width="20" height="20" viewBox="0 0 20 20" fill="none" xmlns="http://www.w3.org/2000/svg">
<g id="vuesax/outline/image">
<g id="image">
<path id="Vector" d="M15.2981 18.9584H4.65643C3.38977 18.9584 2.23143 18.3168 1.56476 17.2334C0.898098 16.1501 0.839765 14.8334 1.40643 13.6918L2.83976 10.8168C3.30643 9.88343 4.05643 9.3001 4.8981 9.20844C5.73977 9.11677 6.5981 9.53343 7.2481 10.3418L7.43143 10.5751C7.7981 11.0251 8.2231 11.2668 8.63977 11.2251C9.05643 11.1918 9.43977 10.8918 9.7231 10.3834L11.2981 7.54177C11.9481 6.36677 12.8148 5.75843 13.7564 5.8001C14.6898 5.8501 15.4898 6.5501 16.0231 7.78344L18.6314 13.8751C19.1148 15.0001 18.9981 16.2834 18.3231 17.3084C17.6564 18.3501 16.5231 18.9584 15.2981 18.9584ZM5.13143 10.4584C5.0981 10.4584 5.06476 10.4584 5.03143 10.4668C4.61477 10.5084 4.23143 10.8418 3.95643 11.3834L2.5231 14.2584C2.1481 15.0001 2.18977 15.8751 2.6231 16.5834C3.05643 17.2918 3.8231 17.7168 4.65643 17.7168H15.2898C16.1064 17.7168 16.8314 17.3251 17.2814 16.6418C17.7314 15.9584 17.8064 15.1418 17.4814 14.3918L14.8731 8.3001C14.5564 7.5501 14.1148 7.09177 13.6898 7.0751C13.2981 7.0501 12.7898 7.46677 12.3898 8.1751L10.8148 11.0168C10.3314 11.8834 9.5731 12.4251 8.7481 12.5001C7.9231 12.5668 7.08143 12.1668 6.45643 11.3834L6.2731 11.1501C5.9231 10.6918 5.5231 10.4584 5.13143 10.4584Z" fill="#414042"/>
<path id="Vector_2" d="M5.80859 7.29175C4.09193 7.29175 2.68359 5.89175 2.68359 4.16675C2.68359 2.44175 4.08359 1.04175 5.80859 1.04175C7.53359 1.04175 8.93359 2.44175 8.93359 4.16675C8.93359 5.89175 7.53359 7.29175 5.80859 7.29175ZM5.80859 2.29175C4.77526 2.29175 3.93359 3.13341 3.93359 4.16675C3.93359 5.20008 4.77526 6.04175 5.80859 6.04175C6.84193 6.04175 7.68359 5.20008 7.68359 4.16675C7.68359 3.13341 6.84193 2.29175 5.80859 2.29175Z" fill="#414042"/>
</g>
</g>
</svg>
