<svg width="40" height="40" viewBox="0 0 40 40" fill="none" xmlns="http://www.w3.org/2000/svg">
<g id="Group 21547">
<g id="Group 21490">
<g id="Group 21491">
<ellipse id="Ellipse 427" cx="23.4996" cy="19.6227" rx="10.6129" ry="10.566" fill="white"/>
<g id="Layer 2">
<g id="checkmark-circle-2">
<path id="Vector" d="M23.4992 10.1885C21.6251 10.1885 19.7931 10.7418 18.2348 11.7784C16.6765 12.815 15.4619 14.2884 14.7447 16.0122C14.0275 17.736 13.8399 19.6329 14.2055 21.4629C14.5711 23.2929 15.4736 24.9739 16.7988 26.2933C18.1241 27.6126 19.8125 28.5111 21.6506 28.8751C23.4887 29.2391 25.394 29.0523 27.1255 28.3383C28.857 27.6243 30.3369 26.4151 31.3781 24.8637C32.4193 23.3123 32.9751 21.4883 32.9751 19.6224C32.9751 18.3836 32.73 17.1568 32.2538 16.0122C31.7775 14.8676 31.0796 13.8276 30.1997 12.9516C29.3197 12.0756 28.2751 11.3807 27.1255 10.9066C25.9758 10.4325 24.7436 10.1885 23.4992 10.1885ZM27.5738 17.3677L23.2434 23.0281C23.1551 23.1423 23.0418 23.2348 22.912 23.2986C22.7822 23.3623 22.6395 23.3957 22.4948 23.396C22.3509 23.3968 22.2087 23.3649 22.079 23.3028C21.9493 23.2407 21.8355 23.15 21.7462 23.0375L19.4341 20.1036C19.3576 20.0057 19.3012 19.8938 19.2681 19.7742C19.235 19.6546 19.2259 19.5297 19.2413 19.4066C19.2567 19.2836 19.2963 19.1647 19.3578 19.0569C19.4194 18.949 19.5016 18.8543 19.6 18.7781C19.7985 18.6242 20.0503 18.5552 20.3 18.5861C20.4236 18.6015 20.543 18.6409 20.6513 18.7022C20.7596 18.7634 20.8548 18.8453 20.9313 18.9432L22.4759 20.9055L26.0577 16.1885C26.1336 16.0894 26.2284 16.0061 26.3366 15.9435C26.4448 15.8808 26.5644 15.84 26.6885 15.8234C26.8125 15.8067 26.9387 15.8146 27.0597 15.8465C27.1807 15.8783 27.2943 15.9337 27.3938 16.0092C27.4934 16.0848 27.577 16.1792 27.6399 16.2869C27.7028 16.3947 27.7438 16.5137 27.7605 16.6372C27.7773 16.7607 27.7694 16.8863 27.7373 17.0068C27.7053 17.1273 27.6498 17.2403 27.5738 17.3394V17.3677Z" fill="url(#paint0_linear_4815_22970)"/>
</g>
</g>
</g>
</g>
</g>
<defs>
<linearGradient id="paint0_linear_4815_22970" x1="12.8863" y1="9.43376" x2="40.0559" y2="36.7238" gradientUnits="userSpaceOnUse">
<stop stop-color="#18C95F"/>
<stop offset="1" stop-color="#139F4B"/>
</linearGradient>
</defs>
</svg>
